<svg xmlns="http://www.w3.org/2000/svg" viewBox="0 0 1000 1000"><defs><style>.cls-1{fill:#000814;}.cls-2{fill:#003566;}</style></defs><g id="Capa_4" data-name="Capa 4"><path class="cls-1" d="M214.32,554.09V707a24.2,24.2,0,0,0,24.2,24.2h75.8V731c57-1.48,160.28,3.59,273.91,56a610.85,610.85,0,0,1,136.33,86.35c15.77,13.19,39.76,2,39.76-18.52V780.49a24.15,24.15,0,0,0-9.44-19.18A671.69,671.69,0,0,0,314.32,622.79v-139a24.19,24.19,0,0,1,24.2-24.2h401.8a24.19,24.19,0,0,0,24.2-24.2v-51.6a24.19,24.19,0,0,0-24.2-24.2H238.52a24.19,24.19,0,0,0-24.2,24.2Z"/></g><g id="Capa_2" data-name="Capa 2"><path class="cls-2" d="M213.32,404.15h0c0,158,128.69,286,287.44,286h0c158.75,0,287.44-128.06,287.44-286h0c0-158-128.69-286-287.44-286h0C342,118.13,213.32,246.19,213.32,404.15ZM500.76,232.54c95.25,0,172.46,76.83,172.46,171.61h0c0,94.78-77.21,171.61-172.46,171.61h0c-95.25,0-172.46-76.83-172.46-171.61h0c0-94.78,77.21-171.61,172.46-171.61Z"/></g></svg>