<svg id="Foreground" xmlns="http://www.w3.org/2000/svg" viewBox="0 0 1080 1080"><defs><style>.cls-1{fill:#000814;}.cls-2{fill:#003566;}</style></defs><path class="cls-1" d="M370.59,627.23v90.43A14.31,14.31,0,0,0,384.9,732h44.83v-.12a365.17,365.17,0,0,1,162,33.09A361.44,361.44,0,0,1,672.36,816a14.31,14.31,0,0,0,23.52-11V761.13a14.3,14.3,0,0,0-5.59-11.35,397.31,397.31,0,0,0-260.56-81.92v-82.2A14.31,14.31,0,0,1,444,571.35H681.68A14.32,14.32,0,0,0,696,557V526.52a14.31,14.31,0,0,0-14.32-14.31H384.9a14.31,14.31,0,0,0-14.31,14.31Z"/><path class="cls-2" d="M370,538.55h0c0,93.42,76.11,169.16,170,169.16h0c93.89,0,170-75.74,170-169.16h0c0-93.43-76.11-169.16-170-169.16h0C446.11,369.39,370,445.12,370,538.55Zm170-101.5c56.33,0,102,45.44,102,101.5h0C642,594.6,596.33,640,540,640h0c-56.33,0-102-45.44-102-101.49h0c0-56.06,45.67-101.5,102-101.5Z"/></svg>