<svg xmlns="http://www.w3.org/2000/svg" viewBox="0 0 1000 1000"><defs><style>.cls-1{fill:#000814;}.cls-2{fill:#003566;}</style></defs><g id="Capa_2" data-name="Capa 2"><path class="cls-1" d="M126.3,572.45V771.92a31.58,31.58,0,0,0,31.57,31.57h98.9v-.26c74.36-1.92,209.11,4.68,357.35,73A796.86,796.86,0,0,1,792,988.88c20.58,17.21,51.88,2.66,51.88-24.17v-96.9a31.54,31.54,0,0,0-12.32-25A877.86,877.86,0,0,0,607,717.68c-144.39-54.51-272.35-59-350.24-55.61V480.75a31.57,31.57,0,0,1,31.57-31.57h524.2a31.57,31.57,0,0,0,31.57-31.57V350.29a31.57,31.57,0,0,0-31.57-31.57H157.87a31.57,31.57,0,0,0-31.57,31.57Z"/><path class="cls-2" d="M125,376.83h0C125,582.91,292.89,750,500,750h0c207.11,0,375-167.07,375-373.15h0C875,170.74,707.11,3.68,500,3.68h0C292.89,3.68,125,170.74,125,376.83ZM500,152.94c124.26,0,225,100.24,225,223.89h0c0,123.65-100.74,223.89-225,223.89h0c-124.26,0-225-100.24-225-223.89h0c0-123.65,100.74-223.89,225-223.89Z"/></g></svg>